<svg width="944" height="277" viewBox="0 0 944 277" fill="none" xmlns="http://www.w3.org/2000/svg">
<path d="M-52.5 300.5L-61.5 237.5C64.6667 233.167 334.7 215.9 405.5 181.5C494 138.5 595.672 109.214 652 104C720.551 97.655 964.457 25.0455 978.451 3.79833C978.137 0.0724051 978.286 -0.884648 979 1.50002C979.203 2.17868 979.012 2.94731 978.451 3.79833C980.782 31.4863 1008.63 212.078 1019.5 310.5C932 337.5 731.9 390.5 631.5 386.5C531.1 382.5 131.333 328.5 -56 302L-52.5 300.5Z" fill="#26327A"/>
<path d="M585.5 185.5C474.3 199.9 380.833 259.833 348 288C368.333 305 416.3 339 445.5 339C482 339 561.5 350.5 619.5 350.5C677.5 350.5 978.5 345 993 339C1007.5 333 990 185.5 993 171C996 156.5 990 53.5 951.5 49.5C913 45.5 861.5 83.5 823 110.5C784.5 137.5 724.5 167.5 585.5 185.5Z" fill="#313E8E"/>
<path d="M751 209.5C719.496 224.583 624.833 275.5 583 313.5C616.333 320.833 690.1 336 718.5 338C754 340.5 937 344.5 962.5 343C982.9 341.8 981.333 278.5 978 247C990.667 179.333 1009.52 63.3923 968 132C932.534 190.608 809.759 181.369 751 209.5Z" fill="#3C4A9D"/>
</svg>
