<svg width="104" height="92" viewBox="0 0 104 92" fill="none" xmlns="http://www.w3.org/2000/svg">
<path d="M94.8236 0H58.1178C53.0576 0 48.9413 4.12453 48.9413 9.1947V30.9593C55.9138 32.3833 61.1765 38.5737 61.1765 45.9735V55.1682H94.8236C99.8837 55.1682 104 51.0437 104 45.9735V9.1947C104 4.12453 99.8837 0 94.8236 0ZM64.2352 18.3894C62.546 18.3894 61.1765 17.0171 61.1765 15.3245C61.1765 13.6316 62.546 12.2596 64.2352 12.2596C65.9243 12.2596 67.2939 13.6316 67.2939 15.3245C67.2942 17.0171 65.9246 18.3894 64.2352 18.3894ZM76.4706 30.649C74.7815 30.649 73.4119 29.2767 73.4119 27.5841C73.4119 25.8912 74.7815 24.5192 76.4706 24.5192C78.1598 24.5192 79.5294 25.8912 79.5294 27.5841C79.5294 29.2767 78.1598 30.649 76.4706 30.649ZM88.7058 42.9086C87.0167 42.9086 85.6471 41.5363 85.6471 39.8437C85.6471 38.1508 87.0167 36.7788 88.7058 36.7788C90.395 36.7788 91.7645 38.1508 91.7645 39.8437C91.7649 41.5363 90.395 42.9086 88.7058 42.9086ZM45.8823 36.7788H9.17645C4.11627 36.7788 0 40.9033 0 45.9735V82.7523C0 87.8225 4.11627 91.947 9.17645 91.947H45.8823C50.9424 91.947 55.0587 87.8225 55.0587 82.7523V45.9735C55.0587 40.9033 50.9424 36.7788 45.8823 36.7788ZM15.2942 79.6874C13.6051 79.6874 12.2355 78.3151 12.2355 76.6225C12.2355 74.9296 13.6051 73.5576 15.2942 73.5576C16.9833 73.5576 18.3529 74.9296 18.3529 76.6225C18.3529 78.3151 16.9833 79.6874 15.2942 79.6874ZM15.2942 55.1682C13.6051 55.1682 12.2355 53.7959 12.2355 52.1033C12.2355 50.4104 13.6051 49.0384 15.2942 49.0384C16.9833 49.0384 18.3529 50.4104 18.3529 52.1033C18.3529 53.7959 16.9833 55.1682 15.2942 55.1682ZM27.5294 67.4278C25.8402 67.4278 24.4707 66.0555 24.4707 64.3629C24.4707 62.67 25.8402 61.298 27.5294 61.298C29.2185 61.298 30.5881 62.67 30.5881 64.3629C30.5884 66.0555 29.2185 67.4278 27.5294 67.4278ZM39.7648 79.6874C38.0757 79.6874 36.7062 78.3151 36.7062 76.6225C36.7062 74.9296 38.0757 73.5576 39.7648 73.5576C41.454 73.5576 42.8236 74.9296 42.8236 76.6225C42.8236 78.3151 41.454 79.6874 39.7648 79.6874ZM39.7648 55.1682C38.0757 55.1682 36.7062 53.7959 36.7062 52.1033C36.7062 50.4104 38.0757 49.0384 39.7648 49.0384C41.454 49.0384 42.8236 50.4104 42.8236 52.1033C42.8236 53.7959 41.454 55.1682 39.7648 55.1682Z" fill="#0A1633"/>
</svg>
